<mxfile host="65bd71144e">
    <diagram name="Page-1" id="mfcA2xoNe24xURMVgi7h">
        <mxGraphModel dx="859" dy="742" grid="1" gridSize="10" guides="1" tooltips="1" connect="1" arrows="1" fold="1" page="1" pageScale="1" pageWidth="827" pageHeight="1169" math="0" shadow="0">
            <root>
                <mxCell id="0"/>
                <mxCell id="1" parent="0"/>
                <mxCell id="H2taNbU03pfjgMeNGYwy-9" value="Tasks" style="swimlane;fontStyle=1;align=center;verticalAlign=top;childLayout=stackLayout;horizontal=1;startSize=26;horizontalStack=0;resizeParent=1;resizeParentMax=0;resizeLast=0;collapsible=1;marginBottom=0;whiteSpace=wrap;html=1;" parent="1" vertex="1">
                    <mxGeometry x="30" y="615" width="160" height="210" as="geometry"/>
                </mxCell>
                <mxCell id="H2taNbU03pfjgMeNGYwy-10" value="id : int&lt;br&gt;title : str&lt;br&gt;description : str&lt;br&gt;due_date : datetime.date&lt;br&gt;completion_status : bool" style="text;strokeColor=none;fillColor=none;align=left;verticalAlign=top;spacingLeft=4;spacingRight=4;overflow=hidden;rotatable=0;points=[[0,0.5],[1,0.5]];portConstraint=eastwest;whiteSpace=wrap;html=1;" parent="H2taNbU03pfjgMeNGYwy-9" vertex="1">
                    <mxGeometry y="26" width="160" height="74" as="geometry"/>
                </mxCell>
                <mxCell id="H2taNbU03pfjgMeNGYwy-11" value="" style="line;strokeWidth=1;fillColor=none;align=left;verticalAlign=middle;spacingTop=-1;spacingLeft=3;spacingRight=3;rotatable=0;labelPosition=right;points=[];portConstraint=eastwest;strokeColor=inherit;" parent="H2taNbU03pfjgMeNGYwy-9" vertex="1">
                    <mxGeometry y="100" width="160" height="30" as="geometry"/>
                </mxCell>
                <mxCell id="H2taNbU03pfjgMeNGYwy-12" value="comparison dunder methods (__lt__, __ge__...)" style="text;strokeColor=none;fillColor=none;align=left;verticalAlign=top;spacingLeft=4;spacingRight=4;overflow=hidden;rotatable=0;points=[[0,0.5],[1,0.5]];portConstraint=eastwest;whiteSpace=wrap;html=1;" parent="H2taNbU03pfjgMeNGYwy-9" vertex="1">
                    <mxGeometry y="130" width="160" height="80" as="geometry"/>
                </mxCell>
                <mxCell id="10" style="edgeStyle=none;html=1;exitX=0.5;exitY=1;exitDx=0;exitDy=0;entryX=0.5;entryY=0;entryDx=0;entryDy=0;" edge="1" parent="1" source="29" target="8">
                    <mxGeometry relative="1" as="geometry">
                        <Array as="points">
                            <mxPoint x="385" y="310"/>
                            <mxPoint x="110" y="310"/>
                        </Array>
                    </mxGeometry>
                </mxCell>
                <mxCell id="12" style="edgeStyle=none;html=1;entryX=0.533;entryY=-0.025;entryDx=0;entryDy=0;entryPerimeter=0;exitX=0.5;exitY=1;exitDx=0;exitDy=0;" edge="1" parent="1" source="29" target="7">
                    <mxGeometry relative="1" as="geometry">
                        <mxPoint x="385" y="150" as="sourcePoint"/>
                        <Array as="points">
                            <mxPoint x="385" y="310"/>
                            <mxPoint x="592" y="310"/>
                        </Array>
                    </mxGeometry>
                </mxCell>
                <mxCell id="2" value="App" style="whiteSpace=wrap;html=1;" vertex="1" parent="1">
                    <mxGeometry x="150" y="60" width="480" height="30" as="geometry"/>
                </mxCell>
                <mxCell id="23" style="edgeStyle=none;html=1;exitX=0.5;exitY=1;exitDx=0;exitDy=0;" edge="1" parent="1" source="3">
                    <mxGeometry relative="1" as="geometry">
                        <mxPoint x="600" y="540" as="targetPoint"/>
                        <Array as="points">
                            <mxPoint x="305" y="510"/>
                            <mxPoint x="600" y="510"/>
                        </Array>
                    </mxGeometry>
                </mxCell>
                <mxCell id="3" value="MainScreen" style="whiteSpace=wrap;html=1;" vertex="1" parent="1">
                    <mxGeometry x="240" y="430" width="130" height="40" as="geometry"/>
                </mxCell>
                <mxCell id="4" value="EditDetailsScreen" style="whiteSpace=wrap;html=1;" vertex="1" parent="1">
                    <mxGeometry x="400" y="430" width="130" height="40" as="geometry"/>
                </mxCell>
                <mxCell id="5" value="AddNewTaskScreen" style="whiteSpace=wrap;html=1;" vertex="1" parent="1">
                    <mxGeometry x="560" y="430" width="130" height="40" as="geometry"/>
                </mxCell>
                <mxCell id="6" value="CaledarScreen" style="whiteSpace=wrap;html=1;fontStyle=1" vertex="1" parent="1">
                    <mxGeometry x="710" y="430" width="130" height="40" as="geometry"/>
                </mxCell>
                <mxCell id="13" style="edgeStyle=none;html=1;exitX=0.5;exitY=1;exitDx=0;exitDy=0;entryX=0.5;entryY=0;entryDx=0;entryDy=0;" edge="1" parent="1" source="7" target="3">
                    <mxGeometry relative="1" as="geometry">
                        <Array as="points">
                            <mxPoint x="590" y="400"/>
                            <mxPoint x="300" y="400"/>
                        </Array>
                    </mxGeometry>
                </mxCell>
                <mxCell id="14" style="edgeStyle=none;html=1;exitX=0.5;exitY=1;exitDx=0;exitDy=0;entryX=0.5;entryY=0;entryDx=0;entryDy=0;" edge="1" parent="1" source="7" target="4">
                    <mxGeometry relative="1" as="geometry">
                        <Array as="points">
                            <mxPoint x="590" y="400"/>
                            <mxPoint x="465" y="400"/>
                        </Array>
                    </mxGeometry>
                </mxCell>
                <mxCell id="15" style="edgeStyle=none;html=1;exitX=0.5;exitY=1;exitDx=0;exitDy=0;entryX=0.5;entryY=0;entryDx=0;entryDy=0;" edge="1" parent="1" source="7" target="5">
                    <mxGeometry relative="1" as="geometry">
                        <Array as="points">
                            <mxPoint x="590" y="400"/>
                            <mxPoint x="625" y="400"/>
                        </Array>
                    </mxGeometry>
                </mxCell>
                <mxCell id="16" style="edgeStyle=none;html=1;exitX=0.5;exitY=1;exitDx=0;exitDy=0;entryX=0.5;entryY=0;entryDx=0;entryDy=0;" edge="1" parent="1" source="7" target="6">
                    <mxGeometry relative="1" as="geometry">
                        <Array as="points">
                            <mxPoint x="585" y="400"/>
                            <mxPoint x="775" y="400"/>
                        </Array>
                    </mxGeometry>
                </mxCell>
                <mxCell id="17" style="edgeStyle=none;html=1;exitX=0.5;exitY=1;exitDx=0;exitDy=0;entryX=0.5;entryY=0;entryDx=0;entryDy=0;" edge="1" parent="1" source="7" target="9">
                    <mxGeometry relative="1" as="geometry">
                        <Array as="points">
                            <mxPoint x="585" y="400"/>
                            <mxPoint x="935" y="400"/>
                        </Array>
                    </mxGeometry>
                </mxCell>
                <mxCell id="7" value="ScreenManager" style="whiteSpace=wrap;html=1;" vertex="1" parent="1">
                    <mxGeometry x="480" y="345" width="210" height="40" as="geometry"/>
                </mxCell>
                <mxCell id="11" style="edgeStyle=none;html=1;exitX=0.5;exitY=1;exitDx=0;exitDy=0;entryX=0.5;entryY=0;entryDx=0;entryDy=0;" edge="1" parent="1" source="8" target="H2taNbU03pfjgMeNGYwy-9">
                    <mxGeometry relative="1" as="geometry"/>
                </mxCell>
                <mxCell id="8" value="TaskList: list" style="whiteSpace=wrap;html=1;" vertex="1" parent="1">
                    <mxGeometry x="30" y="540" width="160" height="30" as="geometry"/>
                </mxCell>
                <mxCell id="24" style="edgeStyle=none;html=1;exitX=0.5;exitY=1;exitDx=0;exitDy=0;" edge="1" parent="1" source="9">
                    <mxGeometry relative="1" as="geometry">
                        <mxPoint x="600" y="540" as="targetPoint"/>
                        <Array as="points">
                            <mxPoint x="935" y="510"/>
                            <mxPoint x="600" y="510"/>
                        </Array>
                    </mxGeometry>
                </mxCell>
                <mxCell id="9" value="DateScreen" style="whiteSpace=wrap;html=1;fontStyle=1" vertex="1" parent="1">
                    <mxGeometry x="870" y="430" width="130" height="40" as="geometry"/>
                </mxCell>
                <mxCell id="28" style="edgeStyle=none;html=1;exitX=0;exitY=0.5;exitDx=0;exitDy=0;entryX=1.01;entryY=0.077;entryDx=0;entryDy=0;entryPerimeter=0;" edge="1" parent="1" source="19" target="H2taNbU03pfjgMeNGYwy-10">
                    <mxGeometry relative="1" as="geometry"/>
                </mxCell>
                <mxCell id="19" value="TaskButton" style="whiteSpace=wrap;html=1;fontStyle=1" vertex="1" parent="1">
                    <mxGeometry x="540" y="630" width="130" height="40" as="geometry"/>
                </mxCell>
                <mxCell id="25" style="edgeStyle=none;html=1;exitX=0.5;exitY=1;exitDx=0;exitDy=0;" edge="1" parent="1" source="22" target="19">
                    <mxGeometry relative="1" as="geometry"/>
                </mxCell>
                <mxCell id="27" style="edgeStyle=none;html=1;exitX=0;exitY=0.5;exitDx=0;exitDy=0;entryX=1;entryY=0.5;entryDx=0;entryDy=0;" edge="1" parent="1" source="22" target="8">
                    <mxGeometry relative="1" as="geometry"/>
                </mxCell>
                <mxCell id="22" value="TaskList Display" style="whiteSpace=wrap;html=1;" vertex="1" parent="1">
                    <mxGeometry x="540" y="540" width="130" height="40" as="geometry"/>
                </mxCell>
                <mxCell id="29" value="build_task_list_display() -&amp;gt; BoxLayout&lt;br&gt;build_CalendarGUI() -&amp;gt; GridLayout&lt;br&gt;build_MainScreen() -&amp;gt; MainScreen&lt;br&gt;build_TaskDetailsScreen() -&amp;gt; TaskDetails&lt;br&gt;build_AddEditTaskScreen() -&amp;gt; AddEditTaskScreen&lt;br&gt;build_CalendarScreen() -&amp;gt; Screen&lt;br&gt;build_DateScreen() -&amp;gt; Screen&lt;br&gt;quick_new_task() -&amp;gt; None&lt;br&gt;modify_current_task() -&amp;gt; None&lt;br&gt;delete_current_task() -&amp;gt; None&lt;br&gt;new_task() -&amp;gt; None&lt;br&gt;save_list_into_json() -&amp;gt; None" style="whiteSpace=wrap;html=1;" vertex="1" parent="1">
                    <mxGeometry x="150" y="90" width="480" height="180" as="geometry"/>
                </mxCell>
                <mxCell id="30" value="" style="whiteSpace=wrap;html=1;" vertex="1" parent="1">
                    <mxGeometry x="540" y="670" width="130" height="60" as="geometry"/>
                </mxCell>
            </root>
        </mxGraphModel>
    </diagram>
</mxfile>